<?xml version="1.0" encoding="utf-8"?>
<!-- Generator: Adobe Illustrator 22.0.1, SVG Export Plug-In . SVG Version: 6.00 Build 0)  -->
<svg version="1.1" id="logo" xmlns="http://www.w3.org/2000/svg" xmlns:xlink="http://www.w3.org/1999/xlink" x="0px" y="0px"
	 viewBox="0 0 184.1 87" style="enable-background:new 0 0 184.1 87;" xml:space="preserve">
<style type="text/css">
	.st0{fill:none;}
	.st1{font-family:'Montserrat-ExtraLight';}
	.st2{font-size:74px;}
	.st3{fill:#6C6CE5;}
	.st4{fill:#4C4CD3;}
</style>
<rect x="118.1" y="13.9" class="st0" width="75" height="73.8"/>
<text transform="matrix(1 0 0 1 118.1393 68.7606)" class="st1 st2">d</text>
<g id="e_droit">
	<g>
		<path class="st3" d="M105.3,31.9c3.2,0.6,6,2,8.4,4.3c2.4,2.3,4.4,5.3,5.8,9L88.3,57.7c1.3,2.8,3,5.1,5.2,6.8
			c2.2,1.7,4.6,2.7,7.3,3c2.7,0.3,5.4,0,8.2-1.1c2.4-1,4.5-2.3,6.3-4c1.7-1.7,3-3.6,3.9-5.8l2.4,1.2c-1,2.5-2.4,4.7-4.4,6.7
			c-2,1.9-4.4,3.5-7.2,4.6c-3.3,1.3-6.7,1.8-9.9,1.3c-3.3-0.5-6.2-1.8-8.8-3.9c-2.6-2.1-4.5-4.9-5.9-8.4c-1.4-3.4-1.8-6.8-1.4-10.2
			c0.4-3.4,1.6-6.3,3.7-8.9c2-2.6,4.7-4.5,8.1-5.9C98.9,31.7,102.2,31.3,105.3,31.9z M115.9,43.7c-1.9-4-4.6-6.8-8.1-8.2
			c-3.5-1.5-7.3-1.4-11.3,0.2c-4,1.6-6.9,4.2-8.5,7.7c-1.7,3.6-1.9,7.4-0.6,11.7L115.9,43.7z"/>
	</g>
	<path class="st3" d="M113.4,38c1.4,1.3,3.5,3.2,3.2,5.2c-0.4,2.7-4.8,3.1-13.6,6.5c-10.1,4-13.7,7.2-16.2,5.4
		c-2-1.4-1.6-4.9-1.5-6.4c0.6-6.6,6.3-13,13.6-14.6C104.3,32.9,109.9,34.8,113.4,38z"/>
	<path class="st4" d="M84.7,57.1c5-1.7,12.2-4.7,19.4-10.5c4.3-3.4,7.5-6.9,9.9-10c-0.7-0.8-5.5-6.2-13.1-5.9
		c-6.1,0.2-10.1,4-11.3,5.1c-4,3.7-5.1,8.1-5.5,9.7C82.7,50.9,84.1,55.3,84.7,57.1z"/>
</g>
<g id="e_gauche">
	<g>
		<path class="st3" d="M73.4,33.1c3.3,1.3,6,3.3,8.1,5.9c2,2.6,3.2,5.6,3.7,8.9c0.4,3.4-0.1,6.7-1.4,10.2c-1.4,3.4-3.3,6.2-5.9,8.4
			c-2.6,2.1-5.5,3.4-8.8,3.9c-3.3,0.5-6.6,0.1-9.9-1.3c-2.8-1.1-5.2-2.6-7.2-4.6c-2-1.9-3.5-4.2-4.4-6.7l2.4-1.2
			c0.8,2.2,2.1,4.1,3.9,5.8c1.7,1.7,3.8,3,6.3,4c2.8,1.1,5.5,1.5,8.2,1.1c2.7-0.3,5.1-1.4,7.3-3c2.2-1.7,3.9-4,5.2-6.8L49.3,45.2
			c1.4-3.7,3.3-6.7,5.8-9c2.4-2.3,5.2-3.8,8.4-4.3C66.7,31.3,70,31.7,73.4,33.1z M81.5,55.1c1.3-4.2,1.1-8.1-0.6-11.7
			c-1.7-3.6-4.5-6.1-8.5-7.7c-4-1.6-7.8-1.7-11.3-0.2c-3.5,1.5-6.2,4.2-8.1,8.2L81.5,55.1z"/>
	</g>
	<path class="st3" d="M55.5,38c-1.4,1.3-3.5,3.2-3.2,5.2c0.4,2.7,4.8,3.1,13.6,6.5C76,53.6,79.5,56.9,82,55c2-1.4,1.6-4.9,1.5-6.4
		c-0.6-6.6-6.3-13-13.6-14.6C64.5,32.9,59,34.8,55.5,38z"/>
	<path class="st4" d="M84.1,57.1c-5-1.6-12.2-4.7-19.4-10.5c-4.3-3.4-7.5-6.9-9.9-10c0.7-0.8,5.4-6.2,13.1-6
		c6.1,0.2,10.1,3.9,11.3,5.1c4,3.7,5.1,8.1,5.5,9.7C86.1,50.9,84.8,55.3,84.1,57.1z"/>
</g>
<rect x="8.2" y="14.2" class="st0" width="47.4" height="81.3"/>
<text transform="matrix(1 0 0 1 8.2023 69.0907)" class="st1 st2">S</text>
</svg>
