<?xml version="1.0" encoding="utf-8"?>
<!-- Generator: Adobe Illustrator 22.0.1, SVG Export Plug-In . SVG Version: 6.00 Build 0)  -->
<svg version="1.1" id="Picto" xmlns="http://www.w3.org/2000/svg" xmlns:xlink="http://www.w3.org/1999/xlink" x="0px" y="0px"
	 viewBox="0 0 169 191" style="enable-background:new 0 0 169 191;" xml:space="preserve">
<style type="text/css">
	.st0{fill:#6C6CE5;}
	.st1{fill:#4C4CD3;}
	.st2{stroke:#000000;stroke-width:5;stroke-miterlimit:10;}
</style>
<g id="e_droit">
	<ellipse transform="matrix(0.9298 -0.3682 0.3682 0.9298 -23.5994 42.8974)" class="st0" cx="100.6" cy="83.3" rx="3.8" ry="25"/>
	<g>
		<path class="st0" d="M73.7,85.5 M73.7,85.5c0.3,2.3,0.9,4.6,1.9,6.9c0.8,2,1.8,3.9,2.9,5.7c0-3.4,0-6.2,0-9.8
			c-0.8-3-1.1-6-0.7-8.9c0.5-3.9,2-7.3,4.4-10.4c2.4-3.1,5.7-5.6,9.8-7.4l17.8,45c5.3-2,9.6-4.8,13-8.3c3.3-3.5,5.4-7.5,6.3-12.1
			c0.8-4.6,0.3-9.3-1.7-14.3c-1.9-4.8-4.7-8.7-8.4-11.6c-3.7-2.9-8-4.7-12.8-5.3c-4.8-0.6-9.7,0.1-14.7,2c-4.9,2-9,4.8-12,8.5
			c-3.1,3.7-5,7.9-5.7,12.6c0,0.1,0,0.1,0,0.2 M112.4,61c5.1,2.4,8.8,6.5,11.1,12.3c2.3,5.8,2.4,11.2,0.3,16.3
			c-2.1,5-6.1,8.9-11.9,11.7L95.6,60.1C101.7,58.3,107.3,58.6,112.4,61z"/>
	</g>
	<path class="st0" d="M120.3,97.6c-1.9,2-4.6,5-7.5,4.5c-3.9-0.6-4.4-7-9.3-19.5C97.8,68.1,93.1,63,95.7,59.4c2.1-2.8,7-2.3,9.2-2.1
		c9.5,0.9,18.7,9.1,20.9,19.5C127.6,84.7,124.8,92.6,120.3,97.6z"/>
	<path class="st1" d="M92.8,56.4c2.4,7.2,6.7,17.6,15,28c4.9,6.1,9.9,10.8,14.3,14.2c1.1-0.9,8.9-7.8,8.6-18.8
		c-0.3-8.8-5.6-14.6-7.3-16.3c-5.4-5.8-11.6-7.4-13.9-8C101.8,53.5,95.4,55.4,92.8,56.4z"/>
</g>
<g id="e_gauche">
	<ellipse transform="matrix(0.9298 -0.3682 0.3682 0.9298 -33.4973 26.1566)" class="st0" cx="51.8" cy="100.9" rx="3.8" ry="25"/>
	<g>
		<path class="st0" d="M78.7,98.7 M78.7,98.7c-0.3-2.3-0.9-4.6-1.9-6.9c-0.8-2-1.8-3.9-2.9-5.7c0,3.4,0,6.2,0,9.8
			c0.8,3,1.1,6,0.7,8.9c-0.5,3.9-2,7.3-4.4,10.4c-2.4,3.1-5.7,5.6-9.8,7.4l-17.8-45c-5.3,2-9.6,4.8-13,8.3
			c-3.3,3.5-5.4,7.5-6.3,12.1c-0.8,4.6-0.3,9.3,1.7,14.3c1.9,4.8,4.7,8.7,8.4,11.6c3.7,2.9,8,4.7,12.8,5.3c4.8,0.6,9.7-0.1,14.7-2
			c4.9-2,9-4.8,12-8.5c3.1-3.7,5-7.9,5.7-12.6c0-0.1,0-0.1,0-0.2 M40,123.1c-5.1-2.4-8.8-6.5-11.1-12.3c-2.3-5.8-2.4-11.2-0.3-16.3
			c2.1-5,6.1-8.9,11.9-11.7L56.8,124C50.7,125.8,45.1,125.5,40,123.1z"/>
	</g>
	<path class="st0" d="M32.2,86.5c1.9-2,4.6-5,7.5-4.5c3.9,0.6,4.4,7,9.3,19.5c5.7,14.5,10.3,19.7,7.7,23.2c-2.1,2.8-7,2.3-9.2,2.1
		c-9.5-0.9-18.7-9.1-20.9-19.5C24.9,99.5,27.6,91.6,32.2,86.5z"/>
	<path class="st1" d="M59.6,127.8c-2.4-7.2-6.7-17.6-15-28c-4.9-6.1-9.9-10.8-14.3-14.2c-1.1,0.9-8.9,7.8-8.6,18.8
		c0.3,8.8,5.6,14.6,7.3,16.3c5.4,5.8,11.6,7.4,13.9,8C50.7,130.7,57.1,128.8,59.6,127.8z"/>
</g>
<line class="st2" x1="76.3" y1="24.5" x2="76.3" y2="163"/>
</svg>
