<?xml version="1.0" encoding="utf-8"?>
<!-- Generator: Adobe Illustrator 22.1.0, SVG Export Plug-In . SVG Version: 6.00 Build 0)  -->
<svg version="1.1" id="Capa_1" xmlns="http://www.w3.org/2000/svg" xmlns:xlink="http://www.w3.org/1999/xlink" x="0px" y="0px"
	 viewBox="0 0 415.5 546.3" style="enable-background:new 0 0 415.5 546.3;" xml:space="preserve">
<style type="text/css">
	.st0{fill:#211004;}
	.st1{fill:#160C06;}
	.st2{fill:#E3BB94;}
	.st3{fill:#D6AA85;}
	.st4{fill:#DD738A;}
	.st5{fill:#FFFFFF;}
	.st6{fill:#5E3904;}
	.st7{fill:#EADBD6;}
	.st8{fill:#7B5FC1;}
	.st9{fill:#5E108C;}
	.st10{fill:#C17B34;}
</style>
<path class="st0" d="M412.8,183.7C402.2,79.1,321.3,0.1,225.2,0.1h-34.8C94.3,0.1,13.5,79.2,2.8,183.8c-2.6,25.3-3.5,53.6-2.1,85.4
	v238.2c0,21.5,15.9,38.9,35.5,38.9h343.1c19.6,0,35.5-17.4,35.5-38.9V269.1C416.3,237.4,415.4,209,412.8,183.7z M212,89.2
	c-0.5,5.7-0.2,11.5-0.9,17.1c-0.6,5-2.1,9.8-2.3,14.9c-0.2,7.1-11.2,7.1-11,0c0.2-5,1.5-9.8,2.2-14.7c0.9-5.7,0.5-11.6,1-17.3
	C201.6,82.1,212.6,82.1,212,89.2z"/>
<path class="st1" d="M414.9,269.1v238.3c0,21.5-15.9,38.9-35.5,38.9h-49.9c19.6,0,35.5-17.4,35.5-38.9V269.1
	c1.4-31.7,0.5-60.1-2.1-85.4C352.5,81.9,275.6,4.3,182.9,0.2c2.5-0.1,5-0.2,7.6-0.2h34.8c96.1,0,176.9,79.1,187.6,183.7
	C415.4,209,416.3,237.4,414.9,269.1z"/>
<path class="st2" d="M60.3,92.7c-1.6,46-3.1,92-4.7,138h-4.3c-16.6,0-30,13.4-30,30s13.4,30,30,30h4.4
	c2.5,58.5,50.6,105.1,109.7,105.1H187c0,5.1,0,9.2,0,9.2c0,10-0.1,9.7-9.6,11c-7.3,1-14.4,3.9-20.4,8.2
	c-11.9,8.6-19.1,22.6-19.1,37.3v44h139.7v-43.9c0-14.7-7.2-28.7-19.1-37.3c-6-4.3-13.1-7.2-20.4-8.2c-9.5-1.3-9.6-1.1-9.6-11
	c0,0,0-4.1,0-9.2h21.6c8.8-3,83.4-30.2,109.8-109.8c30.7-92.6-33.1-167.8-36-171.1C236,107.5,148.1,100.1,60.3,92.7z"/>
<path class="st3" d="M362.7,230.6h-2.8c-4-32.2-7.9-64.4-11.9-96.5c-10.5-4.5-21-9-31.5-13.6v165.4c0,60.7-49.2,109.8-109.8,109.8
	h43.4c59.1,0,107.2-46.6,109.7-105.1h2.9c8.7,0,16.5-3.7,22-9.6c4.9-5.3,8-12.5,8-20.4C392.6,244.1,379.2,230.6,362.7,230.6z"/>
<g>
	<circle class="st4" cx="121.2" cy="307.3" r="15.9"/>
	<circle class="st4" cx="294.3" cy="307.3" r="15.9"/>
</g>
<path class="st5" d="M179.3,335.7c0,15.7,12.7,28.4,28.4,28.4s28.4-12.7,28.4-28.4c0-0.7-0.6-1.3-1.3-1.3h-54.3
	C179.9,334.4,179.3,335,179.3,335.7z"/>
<g>
	<path class="st6" d="M155.1,265.5c-4.3,0-7.7-2.9-7.7-6.5v-28.2c0-3.6,3.5-6.5,7.7-6.5s7.7,2.9,7.7,6.5V259
		C162.8,262.6,159.4,265.5,155.1,265.5z"/>
	<path class="st6" d="M260.4,265.5c-4.3,0-7.7-2.9-7.7-6.5v-28.2c0-3.6,3.5-6.5,7.7-6.5s7.7,2.9,7.7,6.5V259
		C268.2,262.6,264.7,265.5,260.4,265.5z"/>
</g>
<path class="st7" d="M45.8,275c-10.9,0-10.9,17,0,17C56.8,291.9,56.8,275,45.8,275z"/>
<path class="st8" d="M285.6,482v64.2H130.1V482c0-21.5,8-42,21.2-54.5c4.3-4.1,9-7.2,14-9.4c2.8-1.2,5.7-2.1,8.7-2.7
	c2.5-0.5,4.5-0.8,5.9-1.2c8.8,20.4,21.1,49.3,25.9,60.6c0.9,2.1,3.1,2.1,4,0c4.7-11.2,16.8-39.7,25.8-60.6c1.5,0.4,3.4,0.8,5.9,1.2
	c2.9,0.6,5.9,1.5,8.7,2.7c5,2.1,9.7,5.3,14,9.4C277.6,440.1,285.6,460.6,285.6,482z"/>
<path class="st7" d="M370.7,275c-10.9,0-10.9,17,0,17C381.6,291.9,381.6,275,370.7,275z"/>
<g>
	<path class="st9" d="M173.1,488.6v57.7h-18.4v-57.7c0-7.6,4.1-13.7,9.2-13.7S173.1,481,173.1,488.6z"/>
	<path class="st9" d="M258.7,488.6v57.7h-18.4v-57.7c0-7.6,4.1-13.7,9.2-13.7S258.7,481,258.7,488.6z"/>
</g>
<path class="st1" d="M142.3,215.8c10.3-1.1,19.7-3.5,29.5-5.6l-2.8-13.3c-0.1,0-0.2,0-0.3,0.1l-42.5,12.6c-4.6,1.4-7.2,4.5-6.8,7.7
	C127,217,134.7,216.6,142.3,215.8z"/>
<path class="st1" d="M271.1,214.9c-10.3-1.1-19.7-3.5-29.5-5.6l2.8-13.3c0.1,0,0.2,0,0.3,0.1l42.5,12.6c4.6,1.4,7.2,4.5,6.8,7.7
	C286.4,216.2,278.7,215.7,271.1,214.9z"/>
<path class="st10" d="M99.1,290.3c-3.8,0-3.8,5.9,0,5.9C102.8,296.1,102.8,290.3,99.1,290.3z"/>
<path class="st10" d="M111.9,270.2c-3.8,0-3.8,5.8,0,5.8C115.7,276,115.7,270.2,111.9,270.2z"/>
<path class="st10" d="M152.1,299.1c-3.8,0-3.8,5.8,0,5.8C155.9,304.9,155.9,299.1,152.1,299.1z"/>
<path class="st10" d="M129.5,280.4c-3.8,0-3.8,5.9,0,5.9C133.3,286.2,133.3,280.4,129.5,280.4z"/>
<path class="st10" d="M155.3,277.2c-3.8,0-3.8,5.9,0,5.9C159.1,283.1,159.1,277.2,155.3,277.2z"/>
<path class="st10" d="M304.8,268.8c-3.8,0-3.8,5.9,0,5.9C308.6,274.7,308.6,268.8,304.8,268.8z"/>
<path class="st10" d="M265,277.5c-3.8,0-3.8,5.9,0,5.9S268.8,277.5,265,277.5z"/>
<path class="st10" d="M270.1,297.6c-3.8,0-3.8,5.8,0,5.8C273.8,303.4,273.9,297.6,270.1,297.6z"/>
<path class="st10" d="M289.2,279.9c-3.8,0-3.8,5.9,0,5.9S293,279.9,289.2,279.9z"/>
<path class="st10" d="M316.1,289.9c-3.8,0-3.8,5.9,0,5.9C319.8,295.7,319.9,289.9,316.1,289.9z"/>
<path class="st10" d="M175.5,286.4c-3.5,0-3.5,5.4,0,5.4C178.9,291.8,178.9,286.4,175.5,286.4z"/>
<path class="st10" d="M178.5,301.5c-3.5,0-3.5,5.4,0,5.4S182,301.5,178.5,301.5z"/>
<path class="st10" d="M235.1,301.1c-3.5,0-3.5,5.4,0,5.4S238.6,301.1,235.1,301.1z"/>
<path class="st10" d="M238.8,286.3c-3.5,0-3.5,5.4,0,5.4C242.2,291.7,242.2,286.3,238.8,286.3z"/>
<path class="st0" d="M55.6,230.6c13.2-1,3.3-47,34.5-71.2c34.8-27,81.8,3.7,104.7-22.8c17.8-20.7,7.4-60.5,8.5-60.5
	c1.2,0-3.2,54,19.5,65.5c3.7,1.9,8.2,2.6,17.3,3.9c14.9,2.2,25.3,0.8,30.5,1c26.1,1,47.5,19.2,52.6,23.8
	c24.9,22.6,17.9,56.1,36.8,60.2c1.6,0.4,6.5,1.4,10.4-1.2c15.8-10.5-2.2-67.4-22-104.9c-7.7-14.6-16-30-32.4-46.1
	c-24.9-24.6-51.4-34-62.9-38c-35.3-12.3-65.1-9.7-72-9c-18.8,2-11.2,4.7-57.1,16c-29.4,7.3-44.7,9.1-58,23c-2.8,2.9-6.2,8.3-13,19
	c-7.1,11.2-19.6,31.9-23.9,42C12.4,170.4,40.6,231.7,55.6,230.6z"/>
</svg>
