<?xml version="1.0" encoding="utf-8"?>
<!-- Generator: Adobe Illustrator 22.1.0, SVG Export Plug-In . SVG Version: 6.00 Build 0)  -->
<svg version="1.1" id="Capa_1" xmlns="http://www.w3.org/2000/svg" xmlns:xlink="http://www.w3.org/1999/xlink" x="0px" y="0px"
	 viewBox="0 0 507.9 580.2" style="enable-background:new 0 0 507.9 580.2;" xml:space="preserve">
<style type="text/css">
	.st0{fill:#250B00;}
	.st1{fill:#F3D1BB;}
	.st2{fill:#E8C0A8;}
	.st3{fill:#E8979F;}
	.st4{fill:#371200;}
	.st5{fill:#FFFFFF;}
	.st6{fill:#447600;}
	.st7{fill:#261F23;}
	.st8{fill:#2B282A;}
	.st9{fill:#B5477C;}
	.st10{fill:#9E366C;}
</style>
<g>
	<path class="st0" d="M120.1,466.3c8.2-9.1,13.2-20.5,13.2-32.8c0-20.3-13.4-38.1-33.1-47.3c17.1-9.7,28.3-26.1,28.3-44.8
		c0-29.8-28.8-54-64.2-54S0,311.7,0,341.5c0,20.3,13.4,38.1,33.1,47.3C16,398.5,4.8,414.9,4.8,433.6c0,25.1,20.3,46.2,47.8,52.2
		c-8.2,9.1-13.2,20.5-13.2,32.8c0,29.8,28.8,54,64.2,54s64.2-24.2,64.2-54C168,493.5,147.6,472.4,120.1,466.3z"/>
	<path class="st0" d="M384.4,468.3c-8.5-9.6-13.6-21.6-13.6-34.6c0-21.4,13.8-40.2,34.1-49.9c-17.6-10.2-29.2-27.5-29.2-47.2
		c0-31.4,29.6-56.9,66.1-56.9s66.1,25.5,66.1,56.9c0,21.4-13.8,40.2-34.1,49.9c17.6,10.2,29.2,27.5,29.2,47.2
		c0,26.5-20.9,48.7-49.3,55c8.5,9.6,13.6,21.6,13.6,34.6c0,31.4-29.6,56.9-66.1,56.9s-66.1-25.5-66.1-56.9
		C335,497,356.1,474.7,384.4,468.3z"/>
</g>
<g>
	<path class="st0" d="M206.5,496c7.5-6.8,11.9-15.2,11.9-24.4c0-15.2-12-28.4-29.7-35.1c15.3-7.3,25.4-19.5,25.4-33.3
		c0-22.2-25.8-40.2-57.6-40.2S99,381,99,403.3c0,15.2,12,28.4,29.7,35.1c-15.3,7.3-25.4,19.5-25.4,33.3c0,18.7,18.3,34.4,42.9,38.9
		c-7.5,6.8-11.9,15.2-11.9,24.4c0,22.2,25.8,40.2,57.6,40.2s57.6-17.9,57.6-40.2C249.4,516.2,231.3,500.5,206.5,496z"/>
	<path class="st0" d="M285.8,493.7c-8.4-6.9-13.4-15.4-13.4-24.7c0-15.4,13.6-28.7,33.4-35.6c-17.2-7.4-28.7-19.7-28.7-33.7
		c0-22.5,29-40.7,64.9-40.7s64.9,18.2,64.9,40.7c0,15.4-13.6,28.7-33.4,35.6c17.2,7.4,28.7,19.7,28.7,33.7
		c0,18.9-20.6,34.8-48.4,39.4c8.4,6.9,13.4,15.4,13.4,24.7c0,22.5-29,40.7-64.9,40.7s-64.9-18.2-64.9-40.7
		C237.4,514.2,257.9,498.3,285.8,493.7z"/>
</g>
<g>
	<path class="st0" d="M120.7,288.7c7-9.1,11.1-20.5,11.1-32.8c0-20.3-11.3-38.1-27.9-47.3c14.4-9.7,23.8-26.1,23.8-44.8
		c0-29.8-24.2-54-54-54s-54,24.2-54,54c0,20.3,11.3,38.1,27.9,47.3c-14.4,9.7-23.8,26.1-23.8,44.8c0,25.1,17.1,46.2,40.3,52.2
		c-7,9.1-11.1,20.5-11.1,32.8c0,29.8,24.2,54,54,54s54-24.2,54-54C161,315.8,143.9,294.8,120.7,288.7z"/>
	<path class="st0" d="M391.3,288.7c-7-9.1-11.1-20.5-11.1-32.8c0-20.3,11.3-38.1,27.9-47.3c-14.4-9.7-23.8-26.1-23.8-44.8
		c0-29.8,24.2-54,54-54s54,24.2,54,54c0,20.3-11.3,38.1-27.9,47.3c14.4,9.7,23.8,26.1,23.8,44.8c0,25.1-17.1,46.2-40.3,52.2
		c7,9.1,11.1,20.5,11.1,32.8c0,29.8-24.2,54-54,54s-54-24.2-54-54C351,315.8,368.1,294.8,391.3,288.7z"/>
</g>
<path class="st0" d="M488.2,255.9c0,25.1-17.1,46.2-40.3,52.2c7.5,9.7,11.7,22.1,11,35.5c-1.3,27.1-23,49.3-50.1,51.2
	c-9.9,0.7-19.3-1.3-27.6-5.3c17.9-8.8,30.3-27.2,30.3-48.5c0-9.4-2.4-18.2-6.6-25.9c-2-3.6-0.5-8,3.3-9.6
	c19.1-8.3,32.5-27.4,32.5-49.5c0-15.5-6.6-29.5-17.1-39.4c-3-2.8-2.7-7.7,0.5-10.2c12.6-9.9,20.6-25.2,20.6-42.4
	c0-21.3-12.4-39.8-30.3-48.5c8.3-4,17.7-6,27.6-5.3c26.9,1.9,48.5,23.9,50,50.9c1.2,21.6-10.4,40.6-27.8,50.2
	C478.7,220.8,488.2,237.3,488.2,255.9z"/>
<path class="st1" d="M105.1,115.9v111.3h-2.4c-16.6,0-30,13.4-30,30l0,0c0,16.6,13.4,30,30,30h2.7c3.7,56.8,51,101.8,108.7,101.8h84
	c60.2,0,109-48.8,109-109V115.9H105.1z"/>
<path class="st2" d="M409.9,227.2h-3V115.9h-43.1V280c0,60.2-48.8,109-108.9,109H298c57.8,0,105-44.9,108.7-101.8h3.2
	c8.7,0,16.5-3.7,22-9.6c4.9-5.3,8-12.5,8-20.4l0,0C439.9,240.6,426.5,227.2,409.9,227.2z"/>
<g>
	<circle class="st3" cx="167.9" cy="309.5" r="16.2"/>
	<circle class="st3" cx="344.1" cy="309.5" r="16.2"/>
</g>
<path class="st0" d="M373.4,45.8c-13.3-0.7-25.7,2.6-36.4,8.7C324.3,22.6,293.4,0,257.3,0s-67,22.6-79.7,54.5
	c-10.7-6.2-23-9.4-36.4-8.7c-34.9,1.8-62.8,31.1-63.2,66.4c-0.5,37.7,29.5,68.4,66.7,68.4c22.1,0,41.6-10.8,53.8-27.6
	c0.7-0.9,2-1,2.8-0.3c15.1,13.1,34.6,21,56,21s40.9-8,56-21c0.8-0.8,2.2-0.7,2.8,0.3c12.2,16.7,31.7,27.6,53.8,27.6
	c37.2,0,67.2-30.7,66.7-68.4C436.2,76.9,408.3,47.6,373.4,45.8z"/>
<path class="st4" d="M441.4,107.9c2.8,38.6-29.3,70.8-69.1,70.2l0,0c11-12.3,17.4-28.5,16.6-46.2c-1.6-33.5-30-60.8-64.9-62.4
	c-11.1-0.5-21.6,1.6-31,5.6c-3.2,1.4-7,0.1-8.5-2.9C270.1,44.3,240.3,25,205.7,25c-2.6,0-5.1,0.1-7.6,0.3
	c15.8-14.2,37-22.9,60.2-22.9c36.9,0,68.5,21.9,81.5,53c11.5-6.3,25-9.5,39.4-8.3C412.5,49.8,439.1,75.8,441.4,107.9z"/>
<path class="st5" d="M227.1,318.1L227.1,318.1C227.1,334,240,347,256,347l0,0c15.9,0,28.9-12.9,28.9-28.9l0,0c0-0.7-0.6-1.3-1.3-1.3
	h-55.1C227.7,316.8,227.1,317.4,227.1,318.1z"/>
<g>
	<path class="st0" d="M215.8,210.6l-23.7,8.4c-3.3,1.2-6.9-0.7-8.1-4.1c-1.2-3.4,0.4-7.1,3.7-8.2l23.7-8.4c3.3-1.2,6.9,0.7,8.1,4.1
		C220.7,205.7,219.1,209.4,215.8,210.6z"/>
	<path class="st0" d="M319.7,217l-24-7.6c-3.3-1-5.1-4.8-4-8.2s4.7-5.4,8-4.3l24,7.6c3.3,1,5.1,4.8,4,8.2
		C326.6,216.1,323,218.1,319.7,217z"/>
</g>
<path class="st6" d="M203,265.1c-5.5,0-9.9-3.5-9.9-7.7v-22.2c0-4.3,4.5-7.7,9.9-7.7s9.9,3.5,9.9,7.7v22.2
	C212.9,261.6,208.4,265.1,203,265.1z"/>
<path class="st6" d="M309.9,265.1c-5.5,0-9.9-3.5-9.9-7.7v-22.2c0-4.3,4.5-7.7,9.9-7.7s9.9,3.5,9.9,7.7v22.2
	C319.9,261.6,315.4,265.1,309.9,265.1z"/>
<path class="st7" d="M99,266c-9,0-9,14,0,14S108,266,99,266z"/>
<path class="st7" d="M416.1,266c-9,0-9,14,0,14S425.1,266,416.1,266z"/>
<path class="st8" d="M85.5,265c-4.5,0-4.5,7,0,7S90,265,85.5,265z"/>
<path class="st8" d="M428.5,265c-4.5,0-4.5,7,0,7S433,265,428.5,265z"/>
<path class="st9" d="M296.8,420.9c-3.8-2.8-8.1-4.9-12.6-6.4c-1.2-0.4-2.4-0.7-3.6-1v-24.4h-69.1v24.4c-1.2,0.3-2.4,0.6-3.6,1
	c-4.5,1.5-8.8,3.6-12.6,6.4c-11.9,8.6-19.1,22.6-19.1,37.3l0.1,103.9h139.6v-60v-43.9C315.9,443.5,308.7,429.4,296.8,420.9z"/>
<path class="st10" d="M284.3,468.3c-4.9-1.2-9.4,2.6-9.4,7.3v68.9v17.6h15v-54.9v-31.3C289.9,472.4,287.6,469.2,284.3,468.3z"/>
<path class="st10" d="M214.5,468.3c-4.9-1.2-9.4,2.6-9.4,7.3v31.6v54.9h15v-86.2C220.1,472.4,217.8,469.2,214.5,468.3z"/>
</svg>
