<?xml version="1.0" encoding="utf-8"?>
<!-- Generator: Adobe Illustrator 22.1.0, SVG Export Plug-In . SVG Version: 6.00 Build 0)  -->
<svg version="1.1" id="Capa_1" xmlns="http://www.w3.org/2000/svg" xmlns:xlink="http://www.w3.org/1999/xlink" x="0px" y="0px"
	 viewBox="0 0 446.5 513.3" style="enable-background:new 0 0 446.5 513.3;" xml:space="preserve">
<style type="text/css">
	.st0{fill:#160C06;}
	.st1{fill:#E3BB94;}
	.st2{fill:#E8979F;}
	.st3{fill:#7F0E00;}
	.st4{fill:#423E3C;}
	.st5{fill:#CC9266;}
	.st6{fill:#FFFFFF;}
	.st7{fill:#0C0703;}
	.st8{fill:#D6AA85;}
	.st9{fill:#EFD807;stroke:#EFD807;stroke-width:2;stroke-miterlimit:10;}
</style>
<path class="st0" d="M429,123.8C419.1,52.8,358.5,0,286.9,0H161.5C89.9,0,29.3,52.8,19.4,123.8C8.2,204.5-2.5,306.3,3.7,369
	C9.4,426.3,54,469.6,106.8,469.6h234.7c52.9,0,97.4-43.3,103.1-100.6C450.9,306.3,440.2,204.5,429,123.8z"/>
<path class="st1" d="M70.9,126.5v110.1h-1.5c-16.6,0-30.1,13.5-30.1,30.1l0,0c0,16.6,13.5,30.1,30.1,30.1H71
	c1.9,59.5,50.7,107.1,110.6,107.1h21.9c0,4.3,0,7.5,0,7.5c0,10-0.1,9.7-9.7,11c-7.4,1-14.4,3.9-20.4,8.2
	c-11.9,8.6-19.1,22.7-19.1,37.4v44h139.9v-44.1c0-14.7-7.2-28.8-19.1-37.4c-6-4.3-13.1-7.2-20.4-8.2c-9.5-1.3-9.7-1.1-9.7-11
	c0,0,0-3.2,0-7.5h21.9c61.1,0,110.7-49.5,110.7-110.7V126.5H70.9z"/>
<g>
	<circle class="st2" cx="134.7" cy="323.1" r="16.5"/>
	<circle class="st2" cx="313.7" cy="323.1" r="16.5"/>
</g>
<path class="st3" d="M257.3,422.2v91.1h-66.2V422l2.6,0.4l6.5,2.5c14.7,5.8,32.5,5.8,47.2,0.1l6.9-2.7l2.6-0.4
	C256.9,422.1,257.2,422.1,257.3,422.2z"/>
<g>
	<path class="st0" d="M155,252.1c-2.6,0-5.1-1.6-6.1-4.3c-1.3-3.4,0.4-7.2,3.8-8.5l27.6-10.6c3.4-1.3,7.2,0.4,8.5,3.8
		c1.3,3.4-0.4,7.2-3.8,8.5l-27.6,10.6C156.5,251.9,155.8,252.1,155,252.1z"/>
	<path class="st0" d="M293.4,252.1c-0.8,0-1.6-0.2-2.4-0.4l-27.6-10.6c-3.4-1.3-5.1-5.1-3.8-8.5c1.3-3.4,5.1-5.1,8.5-3.8l27.6,10.6
		c3.4,1.3,5.1,5.1,3.8,8.5C298.6,250.5,296,252.1,293.4,252.1z"/>
	<path class="st4" d="M178.1,297.5c-4.3,0-7.7-3.5-7.7-7.7v-24c0-4.3,3.5-7.7,7.7-7.7s7.7,3.5,7.7,7.7v24
		C185.8,294,182.3,297.5,178.1,297.5z"/>
	<path class="st4" d="M270.3,297.5c-4.3,0-7.7-3.5-7.7-7.7v-24c0-4.3,3.5-7.7,7.7-7.7s7.7,3.5,7.7,7.7v24
		C278.1,294,274.6,297.5,270.3,297.5z"/>
</g>
<path class="st5" d="M236.5,312.9h-6.9v-18.2c0-2.9-2.5-5.4-5.4-5.4s-5.4,2.5-5.4,5.4v23.8c0,2.8,2.2,5.1,4.9,5.4c0.2,0,0.4,0,0.6,0
	h12.3c3,0,5.5-2.5,5.5-5.5S239.5,312.9,236.5,312.9z"/>
<path class="st6" d="M195.3,354.1L195.3,354.1c0,13.7,12.9,24.8,28.9,24.8l0,0c15.9,0,28.9-11.1,28.9-24.8l0,0
	c0-0.6-0.6-1.1-1.3-1.1h-55.1C195.9,353,195.3,353.5,195.3,354.1z"/>
<path class="st7" d="M444.6,369c-5.7,57.3-50.3,100.6-103.1,100.6h-53.9c52.9,0,97.4-43.3,103.1-100.6
	c6.3-62.7-4.5-164.5-15.7-245.3C365.1,52.8,304.5,0,232.9,0h53.9C358.4,0,419,52.8,428.9,123.8C440.1,204.5,450.8,306.3,444.6,369z"
	/>
<path class="st8" d="M379.5,236.5h-2v-110h-43.7v166.7c0,61.1-49.5,110.6-110.6,110.6h43.7c59.9,0,108.7-47.6,110.6-107.1h2.1
	c8.7,0,16.6-3.7,22.1-9.7c5-5.4,8-12.5,8-20.4l0,0C409.6,250,396.1,236.5,379.5,236.5z"/>
<path class="st9" d="M61.9,296.4c-1.3,1.5-3.7,2-5.4,0.6c-1.5-1.3-1.6-3.7-1.6-5.5c0-3.2,0.3-9.9,4.9-9.6c0.6,0,0.6-1,0-1
	c-6.1-0.5-6.4,9-5.7,13.1c0.7,4.2,5.3,6.9,8.5,3.2C63,296.7,62.3,296,61.9,296.4z"/>
<path class="st9" d="M399.3,293.7c-0.6-5.2-4.1-10.4-9.9-9.5c-0.6,0.1-0.4,1.1,0.3,1c4.2-0.7,7.2,2.6,8.3,6.4
	c0.3,1.1,0.9,3.3,0.5,4.5c-0.9,3.2-6.3,1.1-7.2-0.9c-0.3-0.6-1.1-0.1-0.9,0.5c1.2,2.6,4.1,3.3,6.8,2.8
	C399.8,297.9,399.6,296,399.3,293.7z"/>
<path class="st0" d="M281.2,121c-5.6,17.6-32.3,10.9-81,42c-24.4,15.6-60.5,38.7-74,78c-13.2,38.7,9.6,51.7-3.8,97.2
	c-3,10-18.5,61.6-58.5,70.2c-20.8,4.5-49.2-3.2-61.2-25.2c-11.1-20.3,15.1-35.8,24.3-77.4c10.4-47-7.3-68.6-9-111.6
	c-2.9-72.1,45.7-169.3,116.5-181C209.2,1,292,86.7,281.2,121z"/>
<path class="st0" d="M386.7,223.5c-0.4-4.7-0.9-9.4-1-14.1c-0.2-8.5-0.1-17-2.6-25.2c-0.1-0.5-0.2-0.9-0.2-1.3
	c-0.3-0.7-0.5-1.6-0.5-2.6c0.3-4-0.9-7.9-1.4-11.9c-0.5-5-0.9-10-1.8-15c-0.8-4.6-1.6-9.3-1.3-14c0.2-2.3,1-4.8,0.6-7.1
	c-0.3-1.9-1.3-3.7-2-5.5c-0.1-0.2-0.1-0.3-0.1-0.5c-30.2-28.7-81.3-34.3-94.6-17.2c-13.9,17.9,13.1,61.4,34,84
	c14.4,15.6,51.7,49,72.4,37.7c0.1-0.1,0.2-0.1,0.3-0.2C387.1,228.5,387,226,386.7,223.5z"/>
</svg>
