<?xml version="1.0" encoding="utf-8"?>
<!-- Generator: Adobe Illustrator 22.1.0, SVG Export Plug-In . SVG Version: 6.00 Build 0)  -->
<svg version="1.1" id="Capa_1" xmlns="http://www.w3.org/2000/svg" xmlns:xlink="http://www.w3.org/1999/xlink" x="0px" y="0px"
	 viewBox="0 0 369.3 465.8" style="enable-background:new 0 0 369.3 465.8;" xml:space="preserve">
<style type="text/css">
	.st0{fill:#F3D1BB;}
	.st1{fill:#459DE5;}
	.st2{fill:#1D87CE;}
	.st3{fill:#E8C0A8;}
	.st4{fill:#E8979F;}
	.st5{fill:#765500;}
	.st6{fill:#DDA68C;}
	.st7{fill:#439AD5;}
	.st8{fill:#705117;}
	.st9{fill:#2D2D2D;}
	.st10{fill:none;stroke:#2D2D2D;stroke-width:5;stroke-miterlimit:10;}
	.st11{fill:none;}
	.st12{fill:none;stroke:#FFFFFF;stroke-miterlimit:10;}
	.st13{font-family:'ArialMT';}
	.st14{font-size:12px;}
	.st15{fill:#9B7500;}
</style>
<path class="st0" d="M257,465.8v-44.1c0-14.7-7.2-28.8-19.2-37.4c-6-4.3-13.1-7.2-20.5-8.2c-9.5-1.3-9.7-1.1-9.7-11.1v-6.6h-41.5
	v6.6c0,10-0.1,9.7-9.7,11.1c-7.4,1-14.4,3.9-20.5,8.2c-11.9,8.6-19.2,22.7-19.2,37.4v44.1H257z"/>
<path class="st1" d="M257,421.7v44.1H116.9v-44.1c0-14.7,7.2-28.8,19.1-37.4c3.9-2.8,8.1-4.9,12.6-6.4c2.5-0.8,5.2-1.4,7.8-1.8
	c3.9-0.5,6.2-0.8,7.6-1.6l1.8,0.4l4.5,2.5c10.2,5.8,22.6,5.8,32.8,0.1l4.8-2.7l1.8-0.4c1.4,0.8,3.7,1.1,7.6,1.6
	c2.7,0.4,5.3,1,7.8,1.8c4.5,1.5,8.8,3.6,12.6,6.4C249.8,392.9,257,407,257,421.7z"/>
<g>
	<path class="st2" d="M159.5,434.1v31.7h-15v-31.7c0-4.2,3.4-7.5,7.5-7.5C156.2,426.6,159.5,430,159.5,434.1z"/>
	<path class="st2" d="M229.5,434.1v31.7h-15v-31.7c0-4.2,3.4-7.5,7.5-7.5C226.1,426.6,229.5,430,229.5,434.1z"/>
</g>
<path class="st0" d="M31.2,71.2v119h-1.1C13.5,190.2,0,203.7,0,220.3l0,0c0,16.6,13.5,30.1,30.1,30.1h1.2
	C33,310,81.9,357.7,141.8,357.7H227c61.1,0,110.6-49.5,110.6-110.6V71.2H31.2z"/>
<path class="st3" d="M339.2,191.3h-1.6v-120h-43.7v175.9c0,61.1-49.5,110.6-110.6,110.6H227c59.6,0,108.2-47.2,110.5-106.3h1.7
	c8.7,0,16.6-3.7,22.1-9.7c5-5.4,8-12.5,8-20.4l0,0C369.3,204.7,355.8,191.3,339.2,191.3z"/>
<g>
	<circle class="st4" cx="94.9" cy="228.3" r="16.5"/>
	<circle class="st4" cx="273.9" cy="228.3" r="16.5"/>
</g>
<g>
	<path class="st5" d="M105.4,168.6c-3.1,0-6.1-1.9-7.2-5.1c-1.5-4.1,0.5-8.7,4.5-10.2l32.6-12.8c4-1.5,8.5,0.5,10,4.6
		s-0.5,8.7-4.5,10.2l-32.6,12.8C107.2,168.4,106.3,168.6,105.4,168.6z"/>
	<path class="st5" d="M268.6,168.6c-0.9,0-1.9-0.2-2.8-0.5l-32.6-12.8c-4-1.5-6-6.1-4.5-10.2s6-6.1,10-4.6l32.6,12.8
		c4,1.5,6,6.1,4.5,10.2C274.6,166.6,271.7,168.6,268.6,168.6z"/>
</g>
<path class="st6" d="M189.2,241.7c-5.6,0-10.6-3.3-12.8-8.5c-1-2.3,0.1-4.9,2.4-5.9s4.9,0.1,5.9,2.4c0.8,1.8,2.5,3,4.5,3
	c1.9,0,3.6-1.1,4.4-2.8c1.1-2.2,3.8-3.2,6-2.1s3.2,3.8,2.1,6C199.4,238.6,194.5,241.7,189.2,241.7z"/>
<g>
	<path class="st7" d="M137.1,216.3c-4.3,0-7.7-3.9-7.7-8.5v-26.1c0-4.8,3.6-8.5,7.7-8.5s7.7,3.9,7.7,8.5v26.1
		C145,212.5,141.4,216.3,137.1,216.3z"/>
	<path class="st7" d="M229.5,216.3c-4.2,0-7.7-3.9-7.7-8.5v-26.1c0-4.8,3.5-8.5,7.7-8.5s7.7,3.9,7.7,8.5v26.1
		C237.3,212.5,233.7,216.3,229.5,216.3z"/>
</g>
<g>
	<path class="st8" d="M162.6,5.9c0.6,0,1.1-0.1,1.7-0.1c0-0.1,0-0.2,0-0.4c0-0.1,0-0.1,0-0.2C163.7,5.5,163.1,5.7,162.6,5.9z"/>
	<path class="st8" d="M177,95c-21.1,0-38.1,8.5-38.1,19h76.2C215.1,103.5,198,95,177,95z"/>
	<path class="st8" d="M341,170.6c-0.4,1,0.7-2.6,0.8-3c0,0.1,0.7-3.3,0.8-3.2c0.4-2.7,0.4-5.6,0.4-8.3c0-5.3-0.3-10.6-0.4-16
		c-0.9-3.7-0.6-7.5,0.7-11c-0.7-0.2-1.4-0.3-2-0.6c-1.9,1.5-4.2,2.4-6.7,2.4h-34.4c4.2,23.7,14.2,49.7,35.2,72.6
		c0,0,4.7-4.2,11-12.4C338.8,186.7,337.8,178,341,170.6z"/>
	<path class="st8" d="M104.8,130.9c67.7,17.1,116.9,11.3,150.5,0H104.8z"/>
	<path class="st8" d="M28.7,130.9c-0.5,0-1.1-0.1-1.6-0.1c-1.4,0.4-2.8,0.7-4.4,0.6c-0.2,0-0.5,0-0.7,0c1.2,2.8,1.5,5.9,0.8,9
		c-0.1,2.3-0.3,4.6-0.5,6.9c0,3.1-0.1,6.2-0.3,9.3c-0.2,3-0.6,5.9-1,8.9c0,0.2,0,0.4-0.1,0.7c-0.1,0.8-0.1,1.5-0.2,2.3
		c-0.7,7-1.2,15.1-4.9,21.2c6.9,9.2,12.1,13.9,12.1,13.9c21.1-23,31-49,35.2-72.6L28.7,130.9L28.7,130.9z"/>
</g>
<path d="M346.3,68.2c0-33-66.8-60.1-151.6-62.5c0-0.1,0-0.1,0-0.2c0-3-6.7-5.5-15.1-5.5c-8.3,0-15.1,2.5-15.1,5.5c0,0.1,0,0.2,0,0.4
	C82,9.2,17.7,35.9,17.7,68.2c0,2.4,0.4,4.7,1,7c-0.7,1.5-1,3.2-1,5v38.7c0,6.6,5.1,12,11.3,12h305.9c6.2,0,11.3-5.4,11.3-12V80.2
	c0-1.8-0.4-3.5-1-5C345.9,72.9,346.3,70.6,346.3,68.2z M139.2,114c0-10.5,17.1-19,38.1-19c21.1,0,38.1,8.5,38.1,19H139.2z"/>
<path class="st9" d="M156.6,5.2c-29.5,11.2-59.3,24.5-82.4,46.5c-20.7,19.8-35.4,46.8-35.3,76c0,1.9,3,1.9,3,0
	c-0.2-28.9,14.8-55.6,35.5-74.9c22.6-21,51.3-33.9,79.9-44.7C159.2,7.4,158.4,4.5,156.6,5.2z"/>
<path class="st9" d="M162.9,5.5c-14.4,15.4-24.7,34-30.1,54.4c-5.8,22.2-6.2,45.4-5.8,68.3c0,1.9,3,1.9,3,0
	c-0.4-22-0.1-44.3,5.2-65.7c5.1-20.6,15.3-39.3,29.8-54.8C166.4,6.2,164.3,4.1,162.9,5.5z"/>
<path class="st9" d="M231.4,126.8c-1.3-11.7-2.5-23.5-3.8-35.2c-1.1-10.5-1.5-21.6-4.1-31.9c-2.5-10-8.6-18.8-13.9-27.5
	c-6.1-10.2-12.3-20.4-18.4-30.6c-1-1.7-3.6-0.1-2.6,1.5l16.9,28.1c5.6,9.3,12.4,18.6,15.1,29.3c2.6,10.4,2.9,21.5,4.1,32.1
	c1.2,11.4,2.5,22.8,3.7,34.3C228.6,128.6,231.6,128.7,231.4,126.8z"/>
<path class="st9" d="M314.6,126.4c-3.1-16.6-6.1-33.2-9.2-49.8c-2.5-13.4-6-24.2-17.2-32.7c-11.5-8.8-25.7-14.4-38.9-20.1
	c-14.7-6.4-29.7-12.2-44.7-18c-1.8-0.7-2.6,2.2-0.8,2.9c14.7,5.7,29.5,11.4,44,17.7c12.3,5.3,25.4,10.6,36.5,18.3
	c5.3,3.7,10.1,8.3,13.1,14.1c3.5,6.9,4.4,15,5.8,22.5c2.8,15.3,5.7,30.6,8.5,45.9C312,129.1,314.9,128.3,314.6,126.4z"/>
<path class="st10" d="M215.9,129.6L215.9,129.6c-3.3,0-5.9-2.7-5.9-5.9V120c0-3.3,2.7-5.9,5.9-5.9l0,0c3.3,0,5.9,2.7,5.9,5.9v3.7
	C221.8,126.9,219.2,129.6,215.9,129.6z"/>
<rect x="167.3" y="76.3" class="st11" width="9.7" height="12"/>
<text transform="matrix(1 0 0 1 167.321 84.9021)" class="st12 st13 st14">F</text>
<rect x="175.7" y="71.3" class="st12" width="5.3" height="5.3"/>
<g>
	<path class="st5" d="M186.1,239.8c-38.7,34.7-151.7,5.5-151.7,5.5V304c0,68.2,55.3,123.5,123.5,123.5h29H216
		c68.2,0,123.5-55.3,123.5-123.5v-58.7c0,0-107.6,29.2-146.4-5.5C191.1,238,188.1,238,186.1,239.8z"/>
	<path class="st15" d="M188.7,265.5c1.9-10-7.9-17.9-17.4-14.1c-5.6,2.2-11.1,6.2-14.2,13.1c0,0-4.7,13.1-17.6,19.9
		c-1.7,0.9-1.3,3.4,0.6,3.7C153.3,290.7,183.5,293.2,188.7,265.5z"/>
	<path class="st15" d="M185.2,265.5c-1.9-10,7.9-17.9,17.4-14.1c5.6,2.2,11.1,6.2,14.2,13.1c0,0,4.7,13.1,17.6,19.9
		c1.7,0.9,1.3,3.4-0.6,3.7C220.6,290.7,190.4,293.2,185.2,265.5z"/>
</g>
</svg>
