<?xml version="1.0" encoding="utf-8"?>
<!-- Generator: Adobe Illustrator 22.1.0, SVG Export Plug-In . SVG Version: 6.00 Build 0)  -->
<svg version="1.1" id="Capa_1" xmlns="http://www.w3.org/2000/svg" xmlns:xlink="http://www.w3.org/1999/xlink" x="0px" y="0px"
	 viewBox="0 0 400.8 512" style="enable-background:new 0 0 400.8 512;" xml:space="preserve">
<style type="text/css">
	.st0{fill:#BF8540;}
	.st1{fill:#AA6D2B;}
	.st2{fill:#F3D1BB;}
	.st3{fill:#FFCC99;}
	.st4{fill:#E8979F;}
	.st5{fill:#EA476E;}
	.st6{fill:#FFFFFF;}
	.st7{fill:#BDC6C4;stroke:#E8979F;stroke-width:0.25;stroke-miterlimit:10;}
	.st8{fill:#057A6F;}
	.st9{fill:none;stroke:#000000;stroke-width:3;stroke-miterlimit:10;}
	.st10{stroke:#000000;stroke-width:3;stroke-miterlimit:10;}
	.st11{fill:#00A99D;}
</style>
<path class="st0" d="M236.1,22c0,0,47.1-22.7,78.3-21.9c2.9,0.1,4.2,3.7,1.9,5.6l0,0c-2.2,1.8-1.1,5.4,1.8,5.6
	c20.8,1.4,73.9,11.6,82.7,77.1v369.8c0,3.2-2.9,5.5-6,4.9c-10-2-29.2-9.7-31.3-38.8v82.4c0,2.8-2.4,5.1-5.2,5
	C334.4,510.6,236.1,500,236.1,399V22L236.1,22z"/>
<path class="st1" d="M400.8,86.3v371.6c0,3.2-3,5.6-6.1,4.9c-9.6-2.2-27.5-9.5-31.1-34.3l0.5-342.2C353,6.3,266.9,9.5,266.9,9.5
	l12.7-4.1c11.8-3.2,24.3-5.6,34.9-5.4c2.8,0.1,4,3.7,1.8,5.4l-0.1,0.1c-2.1,1.7-1.1,5.2,1.7,5.4C338.5,12.2,391.9,22,400.8,86.3z"/>
<path class="st2" d="M31.5,133.3v92.9H30c-16.6,0-30,13.5-30,30l0,0c0,16.6,13.4,30,30,30h1.5v7.8c0,60.9,49.3,110.3,110.2,110.3h19
	c0,4,0,6.9,0,6.9c0,10-0.1,9.7-9.7,11c-7.4,1-14.4,3.9-20.4,8.2c-11.9,8.6-19.1,22.7-19.1,37.4v44h139.9v-44
	c0-14.7-7.2-28.8-19.1-37.4c-6-4.3-13.1-7.2-20.4-8.2c-9.5-1.3-9.7-1.1-9.7-11c0,0,0-2.9,0-6.9h24.4c60.9,0,110.2-49.4,110.2-110.3
	V133.3l-152.7-59L31.5,133.3z"/>
<path class="st3" d="M338.7,236.6h-1.8V133.2h-43.6V294c0,60.9-49.3,110.2-110.2,110.2h43.6c60,0,108.8-47.9,110.2-107.5h1.8
	c8.7,0,16.6-3.7,22-9.6c5-5.4,8-12.5,8-20.4l0,0C368.7,250,355.2,236.6,338.7,236.6z"/>
<g>
	<path class="st4" d="M108.4,302.9c10.3,16.4-7,33.8-23.5,23.5c-1.3-0.8-2.4-1.9-3.2-3.2c-10.3-16.4,7-33.8,23.5-23.5
		C106.5,300.5,107.6,301.6,108.4,302.9z"/>
	<path class="st4" d="M287,303.3c9.7,16.3-7.5,33.2-23.8,23c-1.3-0.8-2.4-1.9-3.2-3.2c-10.2-16.3,6.7-33.4,23-23.8
		C284.7,300.3,286.1,301.7,287,303.3z"/>
</g>
<path class="st0" d="M232.4,20.2H136c-57.7,0-104.5,50.7-104.5,113.1v83.8c125.8-12.6,149.4-67.3,152.7-120.4
	c3.3,53.1,26.9,107.9,152.7,120.5v-83.8C336.9,70.8,290.1,20.2,232.4,20.2z"/>
<path class="st1" d="M336.9,133.3v83.8c-14.7-1.5-31.5-4.3-43.6-6.9v-77c0-62.5-43.3-113.1-101-113.1h40.1
	C290.1,20.2,336.9,70.8,336.9,133.3z"/>
<path class="st5" d="M251.5,468v44H111.6v-44c0-14.7,7.2-28.8,19.1-37.4c3.8-2.8,8.1-4.9,12.6-6.4c2.5-0.8,5.2-1.4,7.8-1.8
	c3.9-0.5,6.2-0.8,7.6-1.6l1.8,0.4l4.5,2.5c10.2,5.8,22.6,5.8,32.8,0.1l4.8-2.7l1.8-0.4c1.4,0.8,3.7,1.1,7.6,1.6
	c2.7,0.4,5.3,1,7.8,1.8c4.5,1.5,8.8,3.6,12.6,6.4C244.3,439.2,251.5,453.3,251.5,468z"/>
<path class="st6" d="M212,512h-61v-40.6c0-2.8,2.2-5,5-5h51c2.8,0,5,2.2,5,5V512z"/>
<g>
	<path class="st7" d="M22.3,355.1c-2.5,0-4.5-3.7-4.5-8.3v-71.1c0-4.5,2-8.3,4.5-8.3s4.5,3.7,4.5,8.3v71.1
		C26.8,351.4,24.8,355.1,22.3,355.1z"/>
	<path class="st7" d="M348.7,367.2c-2.5,0-4.5-3.7-4.5-8.3v-71.1c0-4.5,2-8.3,4.5-8.3s4.5,3.7,4.5,8.3v71.1
		C353.2,363.5,351.2,367.2,348.7,367.2z"/>
</g>
<g>
	<path class="st8" d="M125.7,270.2c-4.3,0-7.7-3.5-7.7-7.7v-23.6c0-4.3,3.5-7.7,7.7-7.7c4.2,0,7.7,3.5,7.7,7.7v23.6
		C133.5,266.8,130,270.2,125.7,270.2z"/>
	<path class="st8" d="M237.3,270.2c-4.3,0-7.7-3.5-7.7-7.7v-23.6c0-4.3,3.5-7.7,7.7-7.7s7.7,3.5,7.7,7.7v23.6
		C245.1,266.8,241.6,270.2,237.3,270.2z"/>
</g>
<g>
	<path class="st0" d="M131.1,225.7h-26.3c-3.7,0-6.5-3-6.5-6.5s3-6.5,6.5-6.5h26.3c3.7,0,6.5,3,6.5,6.5S134.7,225.7,131.1,225.7z"/>
	<path class="st0" d="M261.2,225.7h-26.3c-3.7,0-6.5-3-6.5-6.5s3-6.5,6.5-6.5h26.3c3.7,0,6.5,3,6.5,6.5S264.8,225.7,261.2,225.7z"/>
</g>
<circle class="st9" cx="243.9" cy="249.6" r="54"/>
<path class="st10" d="M290.5,204.5c-0.8-1.1-1.5-2.1-2.4-3.1c-2.6-2.4-5.3-4.5-8.4-6.2c-2.1-1.1-4.4-2.1-6.3-2.3
	c-1-0.1-2-0.3-2.8-0.7h-35c-5,0.8-10,1.8-15.1,2.9c-6.7,1.5-13,4-18.8,7.6c-3.4,2.1-6.2,5-8.7,8.2c-2.7,6.1-4.2,12.9-4.7,19.2
	c0.4,2.2,1.2,4.3,2.4,6.1c5.2-24.5,27.3-42.8,53.8-42.8c24.5,0,45.3,15.8,52.3,37.6c0-0.8,0-1.7,0-2.5c-0.5-4.4-1.1-8.8-2.2-13.1
	C293.6,211.6,292.2,207.9,290.5,204.5z"/>
<circle class="st9" cx="119.9" cy="249.6" r="54"/>
<path class="st10" d="M73.3,204.5c0.8-1.1,1.5-2.1,2.4-3.1c2.6-2.4,5.3-4.5,8.4-6.2c2.1-1.1,4.4-2.1,6.3-2.3c1-0.1,2-0.3,2.8-0.7h35
	c5,0.8,10,1.8,15.1,2.9c6.7,1.5,13,4,18.8,7.6c3.4,2.1,6.2,5,8.7,8.2c2.7,6.1,4.2,12.9,4.7,19.2c-0.4,2.2-1.2,4.3-2.4,6.1
	c-5.2-24.5-27.3-42.8-53.8-42.8C94.8,193.4,74,209.2,67,231c0-0.8,0-1.7,0-2.5c0.5-4.4,1.1-8.8,2.2-13.1
	C70.2,211.6,71.6,207.9,73.3,204.5z"/>
<path d="M191.5,248.3c-0.5-3.4-0.4-8-2.4-11c-1.6-2.4-4.7-3-7.3-2.9c-8,0.3-8,8.6-8.7,14.7c-0.3,2.1,3.1,2.1,3.3,0
	c0.6-4.4,0.1-11.6,6.3-11.3c3,0.2,4.1,1.6,4.5,4.4c0.4,2.3,0.7,4.7,1.1,7C188.6,251.3,191.8,250.4,191.5,248.3z"/>
<path class="st6" d="M150.5,344.3L150.5,344.3c0,15.7,12.7,28.4,28.4,28.4l0,0c15.7,0,28.4-12.7,28.4-28.4l0,0
	c0-0.7-0.6-1.3-1.3-1.3h-54.3C151.1,343,150.5,343.6,150.5,344.3z"/>
<g>
	<circle class="st11" cx="351.9" cy="368.4" r="15.8"/>
	
		<ellipse transform="matrix(3.327792e-02 -0.9994 0.9994 3.327792e-02 -335.1593 367.5186)" class="st11" cx="22.4" cy="357" rx="15.8" ry="15.8"/>
</g>
</svg>
