<?xml version="1.0" encoding="utf-8"?>
<!-- Generator: Adobe Illustrator 22.1.0, SVG Export Plug-In . SVG Version: 6.00 Build 0)  -->
<svg version="1.1" id="Capa_1" xmlns="http://www.w3.org/2000/svg" xmlns:xlink="http://www.w3.org/1999/xlink" x="0px" y="0px"
	 viewBox="0 0 370.2 497" style="enable-background:new 0 0 370.2 497;" xml:space="preserve">
<style type="text/css">
	.st0{fill:#F3D1BB;}
	.st1{fill:#504D54;}
	.st2{fill:#685999;}
	.st3{fill:#63410F;}
	.st4{fill:#ECC19C;}
	.st5{fill:#E8979F;}
	.st6{fill:#553400;}
	.st7{fill:#BF8540;}
	.st8{fill:#6A3800;}
	.st9{fill:#DDA68C;}
	.st10{fill:none;stroke:#000000;stroke-width:5;stroke-miterlimit:10;}
	.st11{stroke:#000000;stroke-width:2;stroke-miterlimit:10;}
</style>
<path class="st0" d="M32.2,103.7v179c0,59.3,48,107.3,107.3,107.3h25.1v6.6c0,10-0.1,9.7-9.6,11c-7.3,1-14.4,3.9-20.4,8.2
	c-11.9,8.6-19.1,22.6-19.1,37.3V497h139.7v-43.9c0-14.7-7.2-28.7-19.1-37.3c-6-4.3-13.1-7.2-20.4-8.2c-9.5-1.3-9.6-1.1-9.6-11V390
	h25c59.3,0,107.3-48,107.3-107.3v-179L32.2,103.7L32.2,103.7z"/>
<path class="st1" d="M255.2,453.1V497H115.5v-43.9c0-14.7,7.2-28.7,19.1-37.3c3.8-2.8,8.1-4.9,12.6-6.4c2.5-0.8,5.2-1.4,7.8-1.8
	c3.9-0.5,6.2-0.8,7.6-1.6l1.8,0.4l4.5,2.5c10.1,5.8,22.5,5.8,32.7,0.1l4.8-2.6l1.8-0.4c1.4,0.8,3.7,1.1,7.6,1.6
	c2.6,0.4,5.3,1,7.8,1.8c4.5,1.5,8.8,3.6,12.6,6.4C248,424.3,255.2,438.4,255.2,453.1z"/>
<path class="st2" d="M215.8,497h-61v-40.5c0-2.8,2.2-5,5-5h51c2.8,0,5,2.2,5,5V497z"/>
<path class="st3" d="M283,360.2c-9.4,6.3-13.2,17.8-14.1,28.6c-1.1,12.7,2.7,25.1,9.8,35.6c4.9,7.3,13,11.9,17.5,19.4
	c4.9,8.1,3,18.5,13.6,7.9c17.1-17.2,18.8-40.1,16-62.6C323.2,368.6,304.7,345.6,283,360.2z"/>
<path d="M307.4,450.7L307.4,450.7L307.4,450.7z"/>
<path class="st4" d="M340.2,222.2h-1.8V103.7h-43.7v175.7c0,61-49.5,110.5-110.5,110.5h43.7c60.1,0,109-48,110.5-107.8h1.8
	c8.7,0,16.5-3.7,22-9.6c4.9-5.3,8-12.5,8-20.4C370.2,235.6,356.8,222.2,340.2,222.2z"/>
<g>
	<circle class="st5" cx="95.9" cy="309.4" r="16.5"/>
	<circle class="st5" cx="274.7" cy="309.4" r="16.5"/>
</g>
<path class="st6" d="M224.4,0c-35.2,0-73.9,0-109.1,0C53.1,0,2.4,54.4,1.2,116.5C0.6,150-0.1,183.5,0,217
	c0.2,54.9,1.8,112.2,43.5,153.6l0.1,0.1c3.1,3,8-0.5,6.4-4.4c-5.6-13.7-9.6-30-9.6-30c-26.4-143.7,110.7-163,111-163
	c22.4-3.1,45.6,0.3,67-8.5c13.9-5.7,28.5-14.1,36.5-27c1-1.6,3.3-1.2,3.7,0.6c3.8,18.6,17.9,34.8,30.9,47.8
	c17.5,17.4,35.4,34.5,45,60.8c0.8,2.1,3.9,1.6,3.9-0.7c0-35.4,0-127.5,0-127.6l0,0C338.4,55.7,287.4,0,224.4,0z"/>
<path class="st3" d="M305,35.7C284.4,13.9,255.9,0,224.4,0h-45.5c31.5,0,60,13.9,80.7,35.7c20.6,21.8,33.4,51.5,33.4,83
	c0,0.1,0,35.5,0,70.8c17.2,16.6,32.4,32.7,41.7,57.9c0.8,2.1,3.9,1.6,3.9-0.7v-128C338.4,87.2,325.7,57.5,305,35.7z"/>
<path class="st5" d="M209.9,337c-3.7,0.2-6.7,2.9-7,6.6c-0.2,0-0.4,0-0.7,0h-25.8c-4.2,0-7.7,3.5-7.7,7.7s3.4,7.7,7.7,7.7h25.8
	c1.4,0,2.7-0.3,3.8-1c0,0,0,0,0.1,0c6.3-1.7,10.7-7.5,10.8-14C216.9,340.4,213.6,336.8,209.9,337z"/>
<path class="st7" d="M252.1,227.9h-27.9c-3.7,0-6.5-3-6.5-6.5c0-3.7,3-6.5,6.5-6.5h27.9c3.7,0,6.5,3,6.5,6.5
	C258.7,224.9,255.8,227.9,252.1,227.9z"/>
<g>
	<path class="st8" d="M231.2,291.4c-4.3,0-7.7-3.5-7.7-7.7V259c0-4.3,3.5-7.7,7.7-7.7s7.7,3.5,7.7,7.7v24.7
		C238.9,287.9,235.5,291.4,231.2,291.4z"/>
	<path class="st8" d="M136.5,291.4c-4.3,0-7.7-3.5-7.7-7.7V259c0-4.3,3.5-7.7,7.7-7.7s7.7,3.5,7.7,7.7v24.7
		C144.3,287.9,140.8,291.4,136.5,291.4z"/>
</g>
<path class="st7" d="M144.9,256.5H117c-3.7,0-6.5-3-6.5-6.5s3-6.5,6.5-6.5h27.9c3.7,0,6.5,3,6.5,6.5S148.6,256.5,144.9,256.5z"/>
<path class="st9" d="M190.2,295h-6.9v-18.2c0-2.9-2.4-5.4-5.4-5.4s-5.4,2.5-5.4,5.4v23.8c0,2.8,2.2,5.1,4.9,5.4c0.2,0,0.4,0,0.6,0
	h12.3c3,0,5.5-2.5,5.5-5.5S193.3,295,190.2,295z"/>
<path class="st10" d="M150.9,296.7H73c-6.6,0-12-5.4-12-12V250c0-6.6,5.4-12,12-12h77.9c6.6,0,12,5.4,12,12v34.7
	C162.9,291.3,157.5,296.7,150.9,296.7z"/>
<path class="st10" d="M284.8,296.7h-77.9c-6.6,0-12-5.4-12-12V250c0-6.6,5.4-12,12-12h77.9c6.6,0,12,5.4,12,12v34.7
	C296.8,291.3,291.4,296.7,284.8,296.7z"/>
<path class="st11" d="M193.3,259.1c-7.4-8.5-24.2-5.3-31.7,1.4c-1.6,1.5,0.8,3.8,2.4,2.4c6.1-5.4,20.8-8.3,26.9-1.4
	C192.3,263.2,194.7,260.8,193.3,259.1z"/>
</svg>
