<?xml version="1.0" encoding="utf-8"?>
<!-- Generator: Adobe Illustrator 22.1.0, SVG Export Plug-In . SVG Version: 6.00 Build 0)  -->
<svg version="1.1" id="Capa_1" xmlns="http://www.w3.org/2000/svg" xmlns:xlink="http://www.w3.org/1999/xlink" x="0px" y="0px"
	 viewBox="0 0 377.2 472.2" style="enable-background:new 0 0 377.2 472.2;" xml:space="preserve">
<style type="text/css">
	.st0{fill:#F3D1BB;}
	.st1{fill:#ECC19C;}
	.st2{fill:#E8979F;}
	.st3{fill:#49381A;}
	.st4{fill:#332311;}
	.st5{fill:#DDA68C;}
	.st6{fill:#282C38;}
	.st7{fill:#26180A;}
	.st8{fill:#121419;}
	.st9{fill:#2D2C2C;}
</style>
<path class="st0" d="M37.6,75.9v119.3h-1.9c-16.7,0-30.2,13.5-30.2,30.2s13.5,30.2,30.2,30.2h1.9c0.1,2.6,0.2,5.2,0.5,7.8
	c-2.9,28.7,1.2,62.2,22.8,80.1c16.5,13.7,41.4,16.7,61,19c11,1.3,24.3,2.9,31.6,0.9h17c0,4,0,7.5,0,7.5c0,10.1-0.1,9.8-9.7,11.1
	c-7.4,1-14.5,3.9-20.6,8.3c-12,8.7-19.3,22.8-19.3,37.6v44.3h140.9v-44.3c0-14.8-7.3-29-19.3-37.6c-6.1-4.4-13.2-7.2-20.6-8.3
	c-9.6-1.4-9.7-1.1-9.7-11.1c0,0,0-3.5,0-7.5h21.9c61.3,0,111-49.7,111-111V75.9H37.6z"/>
<path class="st1" d="M347,190.6h-1.8h-0.6V71.3h-43.9v176.5c0,61.3-27,115.6-88.4,115.6c0,0,1,0,21.9,0c15.8,0,29.8-4.3,32.3-4.8
	c17.2-3,33-12.4,38.3-15.9c9.4-6.2,30.6-20.1,38.7-46.3c4.7-15.5,3.8-31.9,0.9-43.5c0-0.6,0.1-1.3,0.1-1.9c0.4,0,0.7,0,0.7,0h1.8
	c8.8,0,16.7-3.7,22.2-9.7c5-5.4,8-12.6,8-20.5C377.3,204.1,363.7,190.6,347,190.6z"/>
<g>
	<circle class="st2" cx="102.2" cy="286.3" r="16.5"/>
	<circle class="st2" cx="281.8" cy="286.3" r="16.5"/>
</g>
<path class="st3" d="M143.8,204.3H112c-4.3,0-7.8-3.5-7.8-7.8s3.5-7.8,7.8-7.8h31.8c1.9-0.3,8.7-1.4,10.2,1.3
	C155.5,192.6,151.5,198.4,143.8,204.3z"/>
<g>
	<path class="st4" d="M146.1,257.2c-4.3,0-7.8-3.5-7.8-7.8v-23.9c0-4.3,3.5-7.8,7.8-7.8s7.8,3.5,7.8,7.8v23.9
		C153.9,253.7,150.4,257.2,146.1,257.2z"/>
	<path class="st4" d="M237.9,257.2c-4.3,0-7.8-3.5-7.8-7.8v-23.9c0-4.3,3.5-7.8,7.8-7.8s7.8,3.5,7.8,7.8v23.9
		C245.7,253.7,242.2,257.2,237.9,257.2z"/>
</g>
<path class="st3" d="M266.7,203.2h-31.8c-7.6-4.8-10.9-10.7-9.4-13.5c1.6-3,8.7-2.2,9.4-2.1h31.8c4.3,0,7.8,3.5,7.8,7.8
	S271,203.2,266.7,203.2z"/>
<path class="st5" d="M220.4,334.9h-17.8c-4.3,0-7.8-3.5-7.8-7.8s3.5-7.8,7.8-7.8h17.8c4.3,0,7.8,3.5,7.8,7.8
	C228.2,331.4,224.7,334.9,220.4,334.9z"/>
<path class="st6" d="M289,427.5v44.3H91.8v-44.3c0-14.8,10.2-29,26.9-37.6c5.5-2.8,11.5-5,17.8-6.4c3.6-0.8,7.3-1.5,11.1-1.8
	c5.5-0.6,8.8-0.8,10.6-1.6l2.5,0.4l6.3,2.6c14.3,5.8,31.8,5.8,46.2,0.1l6.7-2.7l2.5-0.4c2,0.8,5.2,1.1,10.6,1.6
	c3.8,0.4,7.4,1,11.1,1.8c6.3,1.5,12.3,3.7,17.8,6.4C278.9,398.5,289,412.7,289,427.5z"/>
<path class="st7" d="M34.7,188.5c9.7,5.4,37.6-10.6,48-33.3c3.5-7.6,7.1-20.6,20-32c1.3-1.2,3.3-2.9,6-4.7
	c15.1-9.8,30.9-6.4,58.7-5.3c13.8,0.6,24.3,0.3,34.7,0c32.6-0.9,37.8-3.8,50,0c16.9,5.2,27.6,16.1,32.7,21.3
	c17.8,18.2,15,30.7,32.7,44c5.8,4.3,18.4,14.6,27.2,10.7c9-3.9,10-20.5,9.3-49c-1.5-65-2.2-97.5-15.8-112
	C323,12,302.6,9.1,261.7,2.7c-22.3-3.5-42.7-3-83.5-2c-40,1-66.2,4.1-73.5,5c-35.4,4.4-45,6.3-51.5,8.5C36,20,3.2,31,0.2,50.8
	c-2.7,18.3,22.6,25.4,26,57c0.1,1.2,0.3,4.1,0.7,10c1.3,20,1.3,27.1,2.1,38.4C30.5,176.4,31.2,186.6,34.7,188.5z"/>
<path class="st8" d="M160.5,379.5c-0.4,1.6,4,4.1,6.8,5.6c2.9,1.6,8,4.5,15.7,5.8c7.1,1.2,12.3,0.5,19.2-0.3
	c10.8-1.4,14.3-3.7,16.3-5.5c0.7-0.7,4.6-4.3,3.5-6.5c-0.9-1.8-4.7-2.4-6.5-0.9c-0.5,0.4-0.6,0.8-1,1.5c-0.8,1.4-2.1,2.3-6.3,3.8
	c-3.2,1.2-5,1.9-8,2.4c-3.4,0.7-5.9,0.7-8.8,0.8c-3.5,0.1-5.3,0.2-7.3-0.2c-1.1-0.2-5.2-0.9-9.7-3.7c-3.2-2-3.1-2.8-5.4-3.6
	C165.4,377.4,160.9,378,160.5,379.5z"/>
<path class="st9" d="M44.2,274.1c-1.4,0-1.4,2.2,0,2.2S45.6,274.1,44.2,274.1z"/>
<path class="st9" d="M45.7,278.2c-1.4,0-1.4,2.2,0,2.2S47.1,278.2,45.7,278.2z"/>
<path class="st9" d="M50.4,281.5c-1.4,0-1.4,2.2,0,2.2C51.8,283.6,51.8,281.5,50.4,281.5z"/>
<path class="st9" d="M48.7,283.4c-1.4,0-1.4,2.2,0,2.2C50.1,285.6,50.1,283.4,48.7,283.4z"/>
<path class="st9" d="M44.6,282.2c-1.4,0-1.4,2.2,0,2.2S46,282.2,44.6,282.2z"/>
<path class="st9" d="M41.8,278.2c-1.4,0-1.4,2.2,0,2.2C43.2,280.4,43.2,278.2,41.8,278.2z"/>
<path class="st9" d="M48.3,275.7c-1.4,0-1.4,2.2,0,2.2C49.7,277.9,49.7,275.7,48.3,275.7z"/>
<path class="st9" d="M52.2,287.2c-1.4,0-1.4,2.2,0,2.2S53.6,287.2,52.2,287.2z"/>
<path class="st9" d="M53.6,283.7c-1.4,0-1.4,2.2,0,2.2C54.9,285.9,54.9,283.7,53.6,283.7z"/>
<path class="st9" d="M56.2,288c-1.4,0-1.4,2.2,0,2.2S57.6,288,56.2,288z"/>
<path class="st9" d="M42.1,268.5c-1.4,0-1.4,2.2,0,2.2S43.5,268.5,42.1,268.5z"/>
<path class="st9" d="M41.2,271.3c-1.4,0-1.4,2.2,0,2.2C42.6,273.5,42.6,271.3,41.2,271.3z"/>
<path class="st9" d="M46.1,271.2c-1.4,0-1.4,2.2,0,2.2C47.5,273.3,47.5,271.2,46.1,271.2z"/>
<path class="st9" d="M47.9,292.4c-1.4,0-1.4,2.2,0,2.2C49.3,294.6,49.3,292.4,47.9,292.4z"/>
<path class="st9" d="M49.3,296.6c-1.4,0-1.4,2.2,0,2.2C50.7,298.7,50.7,296.6,49.3,296.6z"/>
<path class="st9" d="M54,299.5c-1.4,0-1.4,2.2,0,2.2S55.4,299.5,54,299.5z"/>
<path class="st9" d="M52.4,301.4c-1.4,0-1.4,2.2,0,2.2C53.8,303.6,53.8,301.4,52.4,301.4z"/>
<path class="st9" d="M48.2,300.5c-1.4,0-1.4,2.2,0,2.2S49.6,300.5,48.2,300.5z"/>
<path class="st9" d="M45.5,296.6c-1.4,0-1.4,2.2,0,2.2C46.9,298.7,46.9,296.6,45.5,296.6z"/>
<path class="st9" d="M51.9,294.1c-1.4,0-1.4,2.2,0,2.2C53.3,296.2,53.3,294.1,51.9,294.1z"/>
<path class="st9" d="M55.5,303.5c-1.4,0-1.4,2.2,0,2.2C56.9,305.6,56.9,303.5,55.5,303.5z"/>
<path class="st9" d="M56.8,300.8c-1.4,0-1.4,2.2,0,2.2C58.2,302.9,58.2,300.8,56.8,300.8z"/>
<path class="st9" d="M59.5,304.3c-1.4,0-1.4,2.2,0,2.2C60.9,306.4,60.9,304.3,59.5,304.3z"/>
<path class="st9" d="M45.7,286.9c-1.4,0-1.4,2.2,0,2.2C47.1,289,47.1,286.9,45.7,286.9z"/>
<path class="st9" d="M44.9,289.7c-1.4,0-1.4,2.2,0,2.2C46.3,291.8,46.3,289.7,44.9,289.7z"/>
<path class="st9" d="M49.7,289.5c-1.4,0-1.4,2.2,0,2.2S51.1,289.5,49.7,289.5z"/>
<path class="st9" d="M49.5,312c-1.2,0.6-0.3,2.6,0.9,1.9C51.7,313.3,50.8,311.4,49.5,312z"/>
<path class="st9" d="M52.6,315.1c-1.2,0.6-0.3,2.6,0.9,1.9C54.8,316.4,53.9,314.5,52.6,315.1z"/>
<path class="st9" d="M58.2,316c-1.2,0.6-0.3,2.6,0.9,1.9C60.4,317.3,59.5,315.4,58.2,316z"/>
<path class="st9" d="M57.6,318.4c-1.2,0.6-0.3,2.6,0.9,1.9C59.8,319.7,58.9,317.8,57.6,318.4z"/>
<path class="st9" d="M53.4,319.1c-1.2,0.6-0.3,2.6,0.9,1.9C55.6,320.5,54.6,318.5,53.4,319.1z"/>
<path class="st9" d="M49.2,316.8c-1.2,0.6-0.3,2.6,0.9,1.9C51.4,318.1,50.4,316.2,49.2,316.8z"/>
<path class="st9" d="M53.9,311.7c-1.2,0.6-0.3,2.6,0.9,1.9C56.1,313,55.1,311.1,53.9,311.7z"/>
<path class="st9" d="M62.4,320.3c-1.2,0.6-0.3,2.6,0.9,1.9C64.6,321.7,63.7,319.7,62.4,320.3z"/>
<path class="st9" d="M62.1,316.6c-1.2,0.6-0.3,2.6,0.9,1.9C64.3,317.9,63.3,316,62.1,316.6z"/>
<path class="st9" d="M66.3,319.3c-1.2,0.6-0.3,2.6,0.9,1.9C68.5,320.6,67.6,318.7,66.3,319.3z"/>
<path class="st9" d="M45.1,307c-1.2,0.6-0.3,2.6,0.9,1.9C47.3,308.3,46.4,306.4,45.1,307z"/>
<path class="st9" d="M45.6,310.9c-1.2,0.6-0.3,2.6,0.9,1.9C47.8,312.2,46.8,310.2,45.6,310.9z"/>
<path class="st9" d="M49.4,306.4c-1.2,0.6-0.3,2.6,0.9,1.9C51.6,307.7,50.6,305.7,49.4,306.4z"/>
<path class="st9" d="M60.8,326.9c-1.2,0.6-0.3,2.6,0.9,1.9C63,328.3,62,326.3,60.8,326.9z"/>
<path class="st9" d="M63.9,330c-1.2,0.6-0.3,2.6,0.9,1.9C66.1,331.3,65.2,329.4,63.9,330z"/>
<path class="st9" d="M69.4,330.3c-1.2,0.6-0.3,2.6,0.9,1.9C71.6,331.6,70.6,329.7,69.4,330.3z"/>
<path class="st9" d="M68.8,332.7c-1.2,0.6-0.3,2.6,0.9,1.9C71,334.1,70,332.1,68.8,332.7z"/>
<path class="st9" d="M64.7,333.8c-1.2,0.6-0.3,2.6,0.9,1.9C66.9,335.1,65.9,333.2,64.7,333.8z"/>
<path class="st9" d="M60.4,331.7c-1.2,0.6-0.3,2.6,0.9,1.9C62.6,333,61.7,331.1,60.4,331.7z"/>
<path class="st9" d="M65.2,326.6c-1.2,0.6-0.3,2.6,0.9,1.9C67.4,327.9,66.4,326,65.2,326.6z"/>
<path class="st9" d="M56.6,330c-1.2,0.6-0.3,2.6,0.9,1.9C58.8,331.3,57.8,329.4,56.6,330z"/>
<path class="st9" d="M57.4,334.9c-1.2,0.6-0.3,2.6,0.9,1.9C59.6,336.2,58.6,334.2,57.4,334.9z"/>
<path class="st9" d="M56.4,322.9c-1.2,0.6-0.3,2.6,0.9,1.9C58.6,324.2,57.7,322.2,56.4,322.9z"/>
<path class="st9" d="M56.9,325.8c-1.2,0.6-0.3,2.6,0.9,1.9C59.1,327.1,58.1,325.1,56.9,325.8z"/>
<path class="st9" d="M61.2,323.5c-1.2,0.6-0.3,2.6,0.9,1.9C63.4,324.8,62.4,322.9,61.2,323.5z"/>
<path class="st9" d="M339.7,260.3c1.4,0,1.4,2.2,0,2.2C338.3,262.5,338.3,260.3,339.7,260.3z"/>
<path class="st9" d="M338.3,264.5c1.4,0,1.4,2.2,0,2.2C336.9,266.6,336.9,264.5,338.3,264.5z"/>
<path class="st9" d="M333.2,267.7c1.4,0,1.4,2.2,0,2.2C331.8,269.9,331.8,267.7,333.2,267.7z"/>
<path class="st9" d="M334.8,269.6c1.4,0,1.4,2.2,0,2.2S333.4,269.6,334.8,269.6z"/>
<path class="st9" d="M339.5,268.6c1.4,0,1.4,2.2,0,2.2S338.1,268.6,339.5,268.6z"/>
<path class="st9" d="M342.1,264.5c1.4,0,1.4,2.2,0,2.2C340.7,266.6,340.7,264.5,342.1,264.5z"/>
<path class="st9" d="M335.6,261.9c1.4,0,1.4,2.2,0,2.2C334.2,264.1,334.2,261.9,335.6,261.9z"/>
<path class="st9" d="M331.7,273.5c1.4,0,1.4,2.2,0,2.2C330.3,275.6,330.3,273.5,331.7,273.5z"/>
<path class="st9" d="M330.4,269.9c1.4,0,1.4,2.2,0,2.2C329,272.1,329,269.9,330.4,269.9z"/>
<path class="st9" d="M327.8,274.2c1.4,0,1.4,2.2,0,2.2S326.4,274.2,327.8,274.2z"/>
<path class="st9" d="M341.9,254.7c1.4,0,1.4,2.2,0,2.2S340.5,254.7,341.9,254.7z"/>
<path class="st9" d="M342.7,257.6c1.4,0,1.4,2.2,0,2.2C341.3,259.7,341.3,257.6,342.7,257.6z"/>
<path class="st9" d="M337.8,257.4c1.4,0,1.4,2.2,0,2.2C336.5,259.5,336.5,257.4,337.8,257.4z"/>
<path class="st9" d="M336.1,278.7c1.4,0,1.4,2.2,0,2.2C334.7,280.8,334.7,278.7,336.1,278.7z"/>
<path class="st9" d="M334.7,282.8c1.4,0,1.4,2.2,0,2.2C333.3,285,333.3,282.8,334.7,282.8z"/>
<path class="st9" d="M330,285.7c1.4,0,1.4,2.2,0,2.2S328.6,285.7,330,285.7z"/>
<path class="st9" d="M331.6,287.6c1.4,0,1.4,2.2,0,2.2S330.2,287.6,331.6,287.6z"/>
<path class="st9" d="M335.7,286.8c1.4,0,1.4,2.2,0,2.2C334.3,288.9,334.3,286.8,335.7,286.8z"/>
<path class="st9" d="M338.5,282.8c1.4,0,1.4,2.2,0,2.2C337.1,285,337.1,282.8,338.5,282.8z"/>
<path class="st9" d="M332,280.3c1.4,0,1.4,2.2,0,2.2C330.6,282.4,330.6,280.3,332,280.3z"/>
<path class="st9" d="M328.4,289.7c1.4,0,1.4,2.2,0,2.2C327.1,291.9,327.1,289.7,328.4,289.7z"/>
<path class="st9" d="M327.1,287c1.4,0,1.4,2.2,0,2.2S325.7,287,327.1,287z"/>
<path class="st9" d="M324.5,290.5c1.4,0,1.4,2.2,0,2.2C323.1,292.6,323.1,290.5,324.5,290.5z"/>
<path class="st9" d="M338.4,273.3c1.4,0,1.4,2.2,0,2.2C337.1,275.4,337.1,273.3,338.4,273.3z"/>
<path class="st9" d="M339.5,276.8c1.4,0,1.4,2.2,0,2.2C338.1,279,338.1,276.8,339.5,276.8z"/>
<path class="st9" d="M334.2,275.7c1.4,0,1.4,2.2,0,2.2C332.8,277.9,332.8,275.7,334.2,275.7z"/>
<path class="st9" d="M334.5,298.2c1.2,0.6,0.3,2.6-0.9,1.9C332.3,299.6,333.2,297.6,334.5,298.2z"/>
<path class="st9" d="M331.3,301.3c1.2,0.6,0.3,2.6-0.9,1.9C329.1,302.7,330.1,300.7,331.3,301.3z"/>
<path class="st9" d="M325.7,302.2c1.2,0.6,0.3,2.6-0.9,1.9C323.5,303.5,324.5,301.6,325.7,302.2z"/>
<path class="st9" d="M326.3,304.6c1.2,0.6,0.3,2.6-0.9,1.9C324.1,306,325.1,304,326.3,304.6z"/>
<path class="st9" d="M330.6,305.4c1.2,0.6,0.3,2.6-0.9,1.9C328.4,306.7,329.3,304.8,330.6,305.4z"/>
<path class="st9" d="M334.8,303c1.2,0.6,0.3,2.6-0.9,1.9C332.6,304.3,333.5,302.4,334.8,303z"/>
<path class="st9" d="M330.1,298.1c1.2,0.6,0.3,2.6-0.9,1.9C327.9,299.4,328.8,297.5,330.1,298.1z"/>
<path class="st9" d="M321.5,306.6c1.2,0.6,0.3,2.6-0.9,1.9C319.3,307.9,320.3,305.9,321.5,306.6z"/>
<path class="st9" d="M321.9,302.8c1.2,0.6,0.3,2.6-0.9,1.9C319.7,304.1,320.6,302.2,321.9,302.8z"/>
<path class="st9" d="M317.6,305.5c1.2,0.6,0.3,2.6-0.9,1.9C315.4,306.9,316.4,304.9,317.6,305.5z"/>
<path class="st9" d="M338.8,293.2c1.2,0.6,0.3,2.6-0.9,1.9C336.6,294.5,337.6,292.6,338.8,293.2z"/>
<path class="st9" d="M338.4,297.1c1.2,0.6,0.3,2.6-0.9,1.9C336.2,298.4,337.1,296.5,338.4,297.1z"/>
<path class="st9" d="M334.6,292.6c1.2,0.6,0.3,2.6-0.9,1.9C332.4,293.9,333.3,292,334.6,292.6z"/>
<path class="st9" d="M323.2,313.1c1.2,0.6,0.3,2.6-0.9,1.9C321,314.5,321.9,312.5,323.2,313.1z"/>
<path class="st9" d="M320.1,316.2c1.2,0.6,0.3,2.6-0.9,1.9C317.9,317.6,318.8,315.6,320.1,316.2z"/>
<path class="st9" d="M314.6,316.5c1.2,0.6,0.3,2.6-0.9,1.9C312.4,317.9,313.3,315.9,314.6,316.5z"/>
<path class="st9" d="M315.2,319c1.2,0.6,0.3,2.6-0.9,1.9C313,320.3,313.9,318.4,315.2,319z"/>
<path class="st9" d="M319.3,320c1.2,0.6,0.3,2.6-0.9,1.9C317.1,321.3,318,319.4,319.3,320z"/>
<path class="st9" d="M323.5,317.9c1.2,0.6,0.3,2.6-0.9,1.9C321.3,319.3,322.3,317.3,323.5,317.9z"/>
<path class="st9" d="M318.8,312.8c1.2,0.6,0.3,2.6-0.9,1.9C316.6,314.1,317.5,312.2,318.8,312.8z"/>
<path class="st9" d="M320.2,323.7c1.2,0.6,0.3,2.6-0.9,1.9C318,325.1,319,323.1,320.2,323.7z"/>
<path class="st9" d="M325.7,322.2c1.2,0.6,0.3,2.6-0.9,1.9C323.5,323.5,324.5,321.6,325.7,322.2z"/>
<path class="st9" d="M327.9,318.4c1.2,0.6,0.3,2.6-0.9,1.9C325.7,319.7,326.6,317.8,327.9,318.4z"/>
<path class="st9" d="M327.6,309.1c1.2,0.6,0.3,2.6-0.9,1.9C325.4,310.4,326.3,308.5,327.6,309.1z"/>
<path class="st9" d="M327.1,312c1.2,0.6,0.3,2.6-0.9,1.9C324.9,313.3,325.8,311.4,327.1,312z"/>
<path class="st9" d="M322.8,309.7c1.2,0.6,0.3,2.6-0.9,1.9C320.6,311,321.5,309.1,322.8,309.7z"/>
<path class="st9" d="M54.4,291.7c-1.4,0-1.4,2.2,0,2.2C55.7,293.8,55.7,291.7,54.4,291.7z"/>
<path class="st9" d="M58.7,290.6c-1.4,0-1.4,2.2,0,2.2C60.1,292.7,60.1,290.6,58.7,290.6z"/>
<path class="st9" d="M58.1,295.5c-1.4,0-1.4,2.2,0,2.2S59.5,295.5,58.1,295.5z"/>
<path class="st9" d="M62.3,301.3c-1.4,0-1.4,2.2,0,2.2C63.7,303.5,63.7,301.3,62.3,301.3z"/>
<path class="st9" d="M62.5,293.8c-1.4,0-1.4,2.2,0,2.2C63.9,296,63.9,293.8,62.5,293.8z"/>
<path class="st9" d="M59.1,311.1c-1.4,0-1.4,2.2,0,2.2C60.5,313.2,60.5,311.1,59.1,311.1z"/>
<path class="st9" d="M65.8,314.8c-1.4,0-1.4,2.2,0,2.2C67.1,316.9,67.1,314.8,65.8,314.8z"/>
<path class="st9" d="M62.2,308.7c-1.4,0-1.4,2.2,0,2.2C63.6,310.9,63.6,308.7,62.2,308.7z"/>
<path class="st9" d="M63.6,311.6c-1.4,0-1.4,2.2,0,2.2C64.9,313.7,64.9,311.6,63.6,311.6z"/>
<path class="st9" d="M69.9,311.1c-1.4,0-1.4,2.2,0,2.2C71.2,313.2,71.2,311.1,69.9,311.1z"/>
<path class="st9" d="M65.8,306.2c-1.4,0-1.4,2.2,0,2.2C67.1,308.4,67.1,306.2,65.8,306.2z"/>
<path class="st9" d="M68.8,306.2c-1.4,0-1.4,2.2,0,2.2S70.2,306.2,68.8,306.2z"/>
<path class="st9" d="M69.1,321.2c-1.2,0.6-0.3,2.6,0.9,1.9C71.3,322.6,70.4,320.6,69.1,321.2z"/>
<path class="st9" d="M72.2,324.3c-1.2,0.6-0.3,2.6,0.9,1.9C74.4,325.7,73.5,323.7,72.2,324.3z"/>
<path class="st9" d="M68.8,326c-1.2,0.6-0.3,2.6,0.9,1.9C71,327.3,70,325.4,68.8,326z"/>
<path class="st9" d="M73.5,320.9c-1.2,0.6-0.3,2.6,0.9,1.9C75.7,322.2,74.7,320.3,73.5,320.9z"/>
<path class="st9" d="M327.7,278.1c1.4,0,1.4,2.2,0,2.2C326.3,280.2,326.3,278.1,327.7,278.1z"/>
<path class="st9" d="M324.5,279.4c1.4,0,1.4,2.2,0,2.2C323.1,281.6,323.1,279.4,324.5,279.4z"/>
<path class="st9" d="M324.6,282.9c1.4,0,1.4,2.2,0,2.2C323.3,285,323.3,282.9,324.6,282.9z"/>
<path class="st9" d="M328.8,282c1.4,0,1.4,2.2,0,2.2S327.4,282,328.8,282z"/>
<path class="st9" d="M344.6,268c1.4,0,1.4,2.2,0,2.2C343.2,270.1,343.2,268,344.6,268z"/>
<path class="st9" d="M343.1,279.2c1.4,0,1.4,2.2,0,2.2S341.7,279.2,343.1,279.2z"/>
<path class="st9" d="M342.5,272.2c1.4,0,1.4,2.2,0,2.2S341.1,272.2,342.5,272.2z"/>
<path class="st9" d="M344.6,276.2c1.4,0,1.4,2.2,0,2.2C343.2,278.3,343.2,276.2,344.6,276.2z"/>
<path class="st9" d="M342.6,285.3c1.4,0,1.4,2.2,0,2.2C341.2,287.4,341.2,285.3,342.6,285.3z"/>
<path class="st9" d="M344.2,287.2c1.4,0,1.4,2.2,0,2.2C342.8,289.3,342.8,287.2,344.2,287.2z"/>
<path class="st9" d="M341.1,289.2c1.4,0,1.4,2.2,0,2.2S339.7,289.2,341.1,289.2z"/>
<path class="st9" d="M337.1,290c1.4,0,1.4,2.2,0,2.2S335.7,290,337.1,290z"/>
<path class="st9" d="M321.9,293.2c1.2,0.6,0.3,2.6-0.9,1.9C319.7,294.5,320.6,292.6,321.9,293.2z"/>
<path class="st9" d="M325.1,296.9c1.2,0.6,0.3,2.6-0.9,1.9C322.9,298.2,323.9,296.2,325.1,296.9z"/>
<path class="st9" d="M329.5,292.7c1.2,0.6,0.3,2.6-0.9,1.9C327.3,294.1,328.2,292.1,329.5,292.7z"/>
<path class="st9" d="M321.3,297.5c1.2,0.6,0.3,2.6-0.9,1.9C319.1,298.8,320,296.9,321.3,297.5z"/>
<path class="st9" d="M332.2,255.6c1.4,0,1.4,2.2,0,2.2C330.8,257.7,330.8,255.6,332.2,255.6z"/>
<path class="st9" d="M332.2,260.3c1.4,0,1.4,2.2,0,2.2C330.8,262.5,330.8,260.3,332.2,260.3z"/>
<path class="st9" d="M332.8,264.5c1.4,0,1.4,2.2,0,2.2C331.4,266.6,331.4,264.5,332.8,264.5z"/>
<path class="st9" d="M329.5,257.8c1.4,0,1.4,2.2,0,2.2C328.1,260,328.1,257.8,329.5,257.8z"/>
<path class="st9" d="M329.4,263.9c1.4,0,1.4,2.2,0,2.2C328,266,328,263.9,329.4,263.9z"/>
<path class="st9" d="M339.4,302.2c1.2,0.6,0.3,2.6-0.9,1.9C337.2,303.5,338.2,301.6,339.4,302.2z"/>
<path class="st9" d="M331.3,309.4c1.2,0.6,0.3,2.6-0.9,1.9C329.1,310.7,330.1,308.8,331.3,309.4z"/>
<path class="st9" d="M330.6,315.1c1.2,0.6,0.3,2.6-0.9,1.9C328.4,316.5,329.3,314.5,330.6,315.1z"/>
<path class="st9" d="M336.4,306.4c1.2,0.6,0.3,2.6-0.9,1.9C334.2,307.8,335.1,305.8,336.4,306.4z"/>
<path class="st9" d="M335.2,310.4c1.2,0.6,0.3,2.6-0.9,1.9C333,311.7,333.9,309.8,335.2,310.4z"/>
<path class="st9" d="M342.1,294.9c1.2,0.6,0.3,2.6-0.9,1.9C339.9,296.3,340.9,294.3,342.1,294.9z"/>
<path class="st9" d="M39.5,282.8c-1.4,0-1.4,2.2,0,2.2C40.9,285,40.9,282.8,39.5,282.8z"/>
<path class="st9" d="M42.9,293.5c-1.4,0-1.4,2.2,0,2.2S44.3,293.5,42.9,293.5z"/>
<path class="st9" d="M40.6,287.5c-1.4,0-1.4,2.2,0,2.2C42,289.6,42,287.5,40.6,287.5z"/>
<path class="st9" d="M39.8,291.7c-1.4,0-1.4,2.2,0,2.2C41.2,293.8,41.2,291.7,39.8,291.7z"/>
<path class="st9" d="M42.3,285.2c-1.4,0-1.4,2.2,0,2.2C43.7,287.3,43.7,285.2,42.3,285.2z"/>
<path class="st9" d="M40.8,296.8c-1.4,0-1.4,2.2,0,2.2C42.2,299,42.2,296.8,40.8,296.8z"/>
<path class="st9" d="M55.4,307.6c-1.4,0-1.4,2.2,0,2.2S56.8,307.6,55.4,307.6z"/>
<path class="st9" d="M42.1,300.1c-1.4,0-1.4,2.2,0,2.2S43.5,300.1,42.1,300.1z"/>
<path class="st9" d="M42.3,304.3c-1.4,0-1.4,2.2,0,2.2C43.7,306.4,43.7,304.3,42.3,304.3z"/>
<path class="st9" d="M46.1,302.8c-1.4,0-1.4,2.2,0,2.2C47.5,304.9,47.5,302.8,46.1,302.8z"/>
<path class="st9" d="M46.5,316.5c-1.4,0-1.4,2.2,0,2.2C47.9,318.6,47.9,316.5,46.5,316.5z"/>
<path class="st9" d="M53.4,331.3c-1.4,0-1.4,2.2,0,2.2C54.8,333.4,54.8,331.3,53.4,331.3z"/>
<path class="st9" d="M49.5,321.3c-1.4,0-1.4,2.2,0,2.2C50.9,323.5,50.9,321.3,49.5,321.3z"/>
<path class="st9" d="M52.4,324.2c-1.4,0-1.4,2.2,0,2.2S53.8,324.2,52.4,324.2z"/>
<path class="st9" d="M54.6,326.4c-1.4,0-1.4,2.2,0,2.2C56,328.6,56,326.4,54.6,326.4z"/>
</svg>
